    <svg
      xmlns="http://www.w3.org/2000/svg"
      width="41"
      height="40"
      fill="none"
      viewBox="0 0 41 40"
    >
      <path
        fill="#FDBA74"
        d="M16.057.001a4.103 4.103 0 00-.956.15c-.079.022-.26.082-.259.086 0 .001.045.033.098.069a7.498 7.498 0 012.124 2.205c.516.815.92 1.752 1.289 2.99.15.5.266.936.512 1.917.28 1.115.396 1.546.563 2.096a14.24 14.24 0 00.585 1.616l.01.023.005-.017.03-.123c.183-.74.207-1.518.072-2.45-.06-.422-.132-.775-.33-1.649-.122-.54-.149-.662-.2-.92-.156-.768-.224-1.388-.214-1.944.002-.09.004-.177.006-.195l.003-.034.901 3.152.903 3.153c.001.001 4.777-2.76 4.784-2.766a8.606 8.606 0 00-.227-.463c-1.1-2.062-3.146-4.178-5.335-5.514C19.294.696 18.183.25 17.168.078a6.064 6.064 0 00-.605-.072c-.06-.004-.454-.008-.506-.005zM12.308 2.07c-.37.023-.736.152-1.064.372-.466.313-.853.817-1.122 1.461-.1.24-.23.633-.322.972-.2.745-.337 1.563-.444 2.65-.038.382-.062.675-.123 1.47-.061.791-.096 1.187-.136 1.573a1.792 1.792 0 00-.015.182c.01.089.073.197.206.345.025.027.114.121.199.208.165.17.238.25.307.33l.052.063c.009.01.01.01.01.003l.264-2.866.317-3.42.052-.564.166.026.167.027c.001 0 .002 1.454.002 3.232l.001 3.232.989.259c4.612 1.21 5.845 1.534 5.846 1.533l-.045-.234-.119-.627a33.509 33.509 0 00-.295-1.504c-.075-.328-.13-.537-.236-.898a86.8 86.8 0 01-.453-1.61c-.397-1.44-.632-2.193-.926-2.964-.243-.638-.551-1.302-.78-1.681a3.87 3.87 0 00-.826-.978c-.514-.423-1.096-.63-1.672-.593zM32.525 8.197c-1.188.039-2.43.241-3.717.604-2.645.748-5.154 2.088-6.9 3.687-.2.184-.533.516-.692.69a8.45 8.45 0 00-1.084 1.463c0 .001.025 0 .054-.003.488-.043.95-.194 1.494-.49.505-.275 1.198-.67 2.327-1.324.924-.535 1.22-.706 1.597-.92 1.643-.935 2.864-1.562 4.024-2.067a6.861 6.861 0 013.24-.58 7.54 7.54 0 012.803.768c.001.002-.161.002-.361.002a25.827 25.827 0 00-3.43.206c-3.56.454-6.61 1.657-8.724 3.44a9.866 9.866 0 00-.696.642 9.24 9.24 0 00-.945 1.102l-.007.011.048.037c.076.059.248.2.358.293.294.25.537.472 1.117 1.021.724.685 1.029.958 1.4 1.255.786.627 1.45.952 2.085 1.021.158.018.436.02.599.006.692-.063 1.441-.314 2.378-.798.385-.2.753-.407 1.374-.776l.481-.286c.567-.336.801-.47 1.27-.72 1.36-.728 2.094-1.165 2.787-1.659.485-.347.862-.658 1.248-1.031.542-.524.897-1.056 1.083-1.624.071-.215.109-.392.132-.62a2.396 2.396 0 00-.238-1.281 2.86 2.86 0 00-.787-.971c-.662-.54-1.574-.88-2.746-1.029-.241-.03-.476-.05-.79-.065a21 21 0 00-.782-.004zM40.44 12.713c-.086.201-.155.354-.237.524a9.73 9.73 0 01-2.678 3.376c-.868.707-1.878 1.321-3.247 1.977-.53.255-.948.443-2.13.957-1.318.575-1.833.812-2.497 1.15a17.772 17.772 0 00-1.557.88l.029.038c.04.048.109.14.212.278.155.208.217.274.248.267.012-.002.516-.206 1.564-.632 1.725-.7 2.978-1.216 6.128-2.519.68-.28 1.236-.51 1.238-.512.004-.001.117.195.12.209.001.004-.89.461-6.462 3.314l-1.846.947.752 1.972 1.214 3.174c.254.662.462 1.206.464 1.208.005.005.057-.02.278-.132.502-.253.941-.51 1.43-.839 1.75-1.175 3.395-2.839 4.71-4.768 1.654-2.425 2.662-5.086 2.81-7.415.012-.201.014-.268.016-.51a7.891 7.891 0 00-.036-.902 6.922 6.922 0 00-.514-2.058l-.01.017zM8.437 13.63c-.351.011-.707.038-1.046.081-1.945.246-3.645 1.027-5.123 2.354-.19.172-.43.402-.58.561l-.09.095h.038c.095 0 .511.012.758.023 1.6.068 2.582.27 3.6.744.123.058.4.198.526.269.457.252.93.555 1.532.98 1.784 1.259 2.694 1.977 3.577 2.827a92.2 92.2 0 011.362 1.392c.568.591 1.024 1.072 2.009 2.118l.789.841a254.351 254.351 0 003.487 3.677 99.498 99.498 0 002.356 2.35c.993.926 2.27 1.714 3.593 2.22.398.15.829.285 1.082.337.402.083.782.088 1.135.019a2.217 2.217 0 001.529-1.12 3.15 3.15 0 00.366-1.223c.016-.162.017-.183.017-.542 0-.416-.008-.707-.03-1.118-.086-1.564-.343-2.815-.786-3.818a24.08 24.08 0 00-.704-1.39c-1.325-2.427-2.946-4.494-4.847-6.182a20.799 20.799 0 00-5.406-3.47c-2.007-.89-4.21-1.509-6.6-1.852a15.306 15.306 0 00-1.865-.173 15.992 15.992 0 00-.679 0zm2.001 1.462c.472.016.923.058 1.396.128 2.013.297 4.178 1.09 6.327 2.317 2.87 1.638 5.517 3.954 7.344 6.427 1.219 1.65 2.025 3.302 2.358 4.834.201.923.23 1.8.085 2.602a3.644 3.644 0 01-.05.24l-.001-.015c0-.051-.017-.314-.03-.45-.108-1.229-.458-2.5-1.04-3.785-1.274-2.809-3.6-5.546-6.56-7.718a24.169 24.169 0 00-3.852-2.308c-2.49-1.19-5.066-1.884-7.586-2.047-.224-.014-.553-.03-.65-.03-.03 0-.05 0-.047-.003.005-.005.187-.04.334-.065a9.752 9.752 0 011.972-.127zM2.232 19.856c-.756.041-1.34.331-1.727.859a2.175 2.175 0 00-.215.361c-.158.332-.248.701-.283 1.163-.007.094-.01.4-.004.512.069 1.453.368 2.862.849 3.998.11.262.317.686.547 1.124a23.316 23.316 0 003.327 4.812c.354.393.815.864 1.198 1.225a21.715 21.715 0 005.566 3.798c1.71.818 3.565 1.452 5.578 1.906a15.77 15.77 0 002.243.347c.402.031.712.042 1.12.038.272-.002.357-.005.575-.017a10.259 10.259 0 003.619-.863 10.509 10.509 0 002.233-1.36l.034-.028-.202-.002a7.697 7.697 0 01-1.057-.08c-1.635-.237-3.149-.986-4.664-2.308a17.893 17.893 0 01-1.149-1.106c-.465-.482-.806-.85-1.66-1.796-1.173-1.3-1.526-1.674-2.308-2.451a777.433 777.433 0 00-2.999-2.97c-2.052-2.019-3.656-3.532-5.174-4.88-.29-.258-.422-.373-.496-.435-.566-.471-1.274-.875-2.116-1.209-.454-.18-.99-.348-1.486-.469a5.334 5.334 0 00-.91-.16 6.544 6.544 0 00-.44-.009zm.024 1.187c.22.07.46.134.917.246.627.154.932.242 1.226.353.353.134.6.267.867.469 2.764 2.083 4.71 3.708 6.34 5.297a92.422 92.422 0 012.424 2.486c1.06 1.125 1.91 2.056 3.963 4.34a386.555 386.555 0 002.523 2.792c0 .002-.17.174-.39.39l-.043.044-.282-.308c-.544-.59-.932-1.016-1.976-2.161a377.832 377.832 0 00-3.81-4.139 143.24 143.24 0 00-3.4-3.517c-1.342-1.329-2.509-2.383-3.648-3.292a10.966 10.966 0 00-.736-.54c-.464-.314-.854-.55-1.847-1.118a33.857 33.857 0 01-1.664-.994 17.43 17.43 0 01-.55-.372c-.005-.005-.01-.006.086.024z"
      ></path>
    </svg>