<svg width="39" height="38" viewBox="0 0 39 38" fill="none" xmlns="http://www.w3.org/2000/svg">
<path d="M13.7405 5.9375C9.52393 5.9375 6.05884 9.39795 6.05884 13.6191V24.3809C6.05884 28.5974 9.51929 32.0625 13.7405 32.0625H24.5022C28.7188 32.0625 32.1838 28.6021 32.1838 24.3809V13.6191C32.1838 9.40259 28.7234 5.9375 24.5022 5.9375H13.7405ZM13.7405 8.3125H24.5022C27.4385 8.3125 29.8088 10.6829 29.8088 13.6191V24.3809C29.8088 27.3171 27.4385 29.6875 24.5022 29.6875H13.7405C10.8042 29.6875 8.43384 27.3171 8.43384 24.3809V13.6191C8.43384 10.6829 10.8042 8.3125 13.7405 8.3125ZM26.135 10.9102C25.5366 10.9102 25.0588 11.3879 25.0588 11.9863C25.0588 12.5847 25.5366 13.0625 26.135 13.0625C26.7334 13.0625 27.2112 12.5847 27.2112 11.9863C27.2112 11.3879 26.7334 10.9102 26.135 10.9102ZM19.1213 11.875C15.2017 11.875 11.9963 15.0803 11.9963 19C11.9963 22.9197 15.2017 26.125 19.1213 26.125C23.041 26.125 26.2463 22.9197 26.2463 19C26.2463 15.0803 23.041 11.875 19.1213 11.875ZM19.1213 14.25C21.7607 14.25 23.8713 16.3606 23.8713 19C23.8713 21.6394 21.7607 23.75 19.1213 23.75C16.4819 23.75 14.3713 21.6394 14.3713 19C14.3713 16.3606 16.4819 14.25 19.1213 14.25Z" fill="#3F3F46"/>
</svg>
