<svg width="38" height="38" viewBox="0 0 38 38" fill="none" xmlns="http://www.w3.org/2000/svg">
<path d="M31.0136 7.9292C32.3492 7.9292 32.7007 8.93937 32.3056 11.3112C31.8536 14.0234 30.5513 23.0033 29.5126 28.5933C29.1152 30.7324 28.3988 31.6547 27.3561 31.6547C26.783 31.6547 26.1116 31.376 25.3405 30.867C24.2955 30.1766 19.0199 26.6877 17.8743 25.8684C16.8293 25.1218 15.3877 24.2233 17.1959 22.4547C17.8395 21.8245 22.0567 17.7973 25.3421 14.6631C25.6928 14.3282 25.3991 13.8176 25.0096 13.8176C24.921 13.8176 24.8268 13.8445 24.7349 13.9055C20.3063 16.8426 14.1654 20.9189 13.384 21.4501C12.6026 21.9805 11.841 22.3209 10.8261 22.3209C10.3076 22.3209 9.72255 22.2322 9.03459 22.0343C7.49638 21.5926 5.99459 21.0661 5.40955 20.865C3.15726 20.0924 3.69163 19.0909 5.87901 18.1282C14.6491 14.2704 25.9976 9.56637 27.5643 8.91562C29.0907 8.28149 30.2243 7.9292 31.0136 7.9292ZM31.0136 5.5542C29.9306 5.5542 28.6268 5.90332 26.6547 6.72112L26.418 6.81928C17.9986 10.3153 10.3646 13.5595 4.92267 15.9535C4.07242 16.328 1.48605 17.4656 1.58659 19.8454C1.62934 20.8722 2.19459 22.2718 4.63926 23.1102L4.81976 23.172C5.50217 23.4071 6.92322 23.8971 8.37988 24.3159C9.26655 24.5708 10.0677 24.6943 10.8269 24.6943C12.1443 24.6943 13.1647 24.3183 13.9627 23.8805C13.9588 24.0135 13.9619 24.1473 13.9722 24.2819C14.1163 26.1122 15.5318 27.116 16.3773 27.7161L16.4953 27.8C17.7437 28.693 23.3938 32.4257 24.0335 32.8477C25.2376 33.6425 26.3246 34.0281 27.3577 34.0281C28.9822 34.0281 31.0809 33.1604 31.8488 29.0263C32.578 25.1052 33.4203 19.6277 34.0354 15.6282C34.2975 13.9213 34.5128 12.5217 34.6498 11.7007C34.9261 10.0429 35.0527 8.16512 33.8993 6.80424C33.4148 6.23424 32.5218 5.5542 31.0136 5.5542Z" fill="#3F3F46"/>
</svg>
