<svg width="52" height="73" viewBox="0 0 52 73" fill="none" xmlns="http://www.w3.org/2000/svg">
<path d="M29.05 8.5V1.5H21.55V8.5L17.05 18L16.55 30H24.55V18L29.05 8.5Z" fill="#0D9488"/>
<path d="M50.2009 16.1646L46.2333 8.22953V1.21667C46.2333 0.544762 45.6886 0 45.0167 0H6.08333C5.41143 0 4.86667 0.544762 4.86667 1.21667V8.22953L0.899117 16.1646C0.308882 17.3478 0.00121667 18.6518 0 19.974V71.7833C0 72.4552 0.544763 73 1.21667 73H49.8833C50.5552 73 51.1 72.4552 51.1 71.7833V19.974C51.0988 18.6518 50.7911 17.3478 50.2009 16.1646ZM30.4167 2.43333H43.8V7.3H30.4167V2.43333ZM23.0108 9.0155C23.0181 9.0009 23.0279 8.96197 23.0388 8.9352C23.0821 8.8181 23.1071 8.69491 23.113 8.5702C23.113 8.55317 23.1228 8.53978 23.1228 8.52275V2.43333H27.9894L27.9833 8.22953L24.0158 16.1646C23.4256 17.3478 23.1179 18.6518 23.1167 19.974V29.2H18.25V19.974C18.2515 19.0294 18.4713 18.0979 18.8924 17.2523L22.995 9.06052C23.0023 9.04592 23.0035 9.0301 23.0108 9.0155ZM7.3 2.43333H20.6833V7.3H7.3V2.43333ZM38.9333 19.974V70.5667H2.43333V19.974C2.43485 19.0294 2.65461 18.0979 3.07573 17.2523L6.83523 9.73333H19.9314L16.7158 16.1646C16.1256 17.3478 15.8179 18.6518 15.8167 19.974V30.4167C15.8167 31.0886 16.3614 31.6333 17.0333 31.6333H24.3333C25.0052 31.6333 25.55 31.0886 25.55 30.4167V19.974C25.5515 19.0294 25.7713 18.0979 26.1924 17.2523L29.9519 9.73333H43.0481L39.8325 16.1646C39.2422 17.3478 38.9346 18.6518 38.9333 19.974ZM48.6667 70.5667H41.3667V19.974C41.3682 19.0294 41.588 18.0979 42.0091 17.2523L45.0167 11.2371L48.0243 17.2523C48.4454 18.0979 48.6652 19.0294 48.6667 19.974V70.5667Z" fill="#3F3F46"/>
<path d="M30.05 47.5L29.55 43.5L27.55 40.5H23.05L16.05 43.5L11.55 50L12.05 57L16.55 59L21.55 58L27.55 53L30.05 47.5Z" fill="#FDBA74"/>
<path d="M22.265 39.5659C19.3649 40.227 16.7206 41.7195 14.6559 43.8607C12.5173 45.9246 11.0266 48.5671 10.366 51.4649C9.70029 53.9429 10.3468 56.5895 12.0802 58.4814C13.4184 59.7706 15.2211 60.464 17.0783 60.4037C17.7578 60.4031 18.4357 60.3352 19.1016 60.2006C22.0017 59.5395 24.646 58.0469 26.7107 55.9057C28.8493 53.8418 30.34 51.1994 31.0006 48.3016C31.6663 45.8235 31.0198 43.177 29.2863 41.285C27.3949 39.547 24.7454 38.8982 22.265 39.5659ZM12.7506 51.9516C13.3185 49.5228 14.5799 47.3113 16.3812 45.586C18.1072 43.7821 20.3206 42.519 22.7516 41.9506C23.2555 41.8481 23.768 41.7951 24.2822 41.7924C25.2621 41.7658 26.2263 42.0415 27.044 42.582C26.5093 42.9966 25.9283 43.3476 25.3127 43.6283C22.816 44.8347 20.8007 46.8499 19.5944 49.3467C19.1389 50.3617 18.4896 51.2778 17.683 52.044C16.916 52.8507 15.9996 53.5002 14.9844 53.9566C14.2344 54.3043 13.5247 54.7335 12.8686 55.2366C12.5418 54.1709 12.5011 53.0379 12.7506 51.9516ZM28.616 47.8149C28.0481 50.2437 26.7867 52.4551 24.9854 54.1805C23.2594 55.9844 21.046 57.2474 18.615 57.8159C17.1562 58.1979 15.6048 57.9724 14.3153 57.1905C14.8524 56.7728 15.4363 56.4187 16.0551 56.1357C17.308 55.5608 18.4417 54.7555 19.3973 53.762C20.394 52.8075 21.2017 51.6736 21.7783 50.4198C22.7468 48.4048 24.3721 46.7795 26.387 45.811C27.1356 45.4629 27.8435 45.0333 28.4979 44.5299C28.8248 45.5955 28.8655 46.7286 28.616 47.8149Z" fill="#3F3F46"/>
</svg>
