<svg width="109" height="73" viewBox="0 0 109 73" fill="none" xmlns="http://www.w3.org/2000/svg">
<g clip-path="url(#clip0_862_604)">
<path fill-rule="evenodd" clip-rule="evenodd" d="M59.5095 8.66211L92.4431 18.9995V35.1861L81.547 38.7482V23.3623L47.2621 12.3864L59.5095 8.66211Z" fill="#FDBA74"/>
<path d="M61.0774 8.62312L94.2237 19.2602C94.5708 19.3717 94.8738 19.5906 95.0894 19.8857C95.3049 20.1807 95.422 20.5367 95.4237 20.9027V34.948C95.4254 35.3079 95.3155 35.6594 95.1093 35.9537C94.903 36.2481 94.6106 36.4706 94.2727 36.5904L91.0325 37.7402C90.6049 37.8785 90.1404 37.8439 89.7378 37.6437C89.3352 37.4435 89.0262 37.0934 88.8766 36.668C88.727 36.2425 88.7485 35.7753 88.9365 35.3655C89.1246 34.9557 89.4643 34.6358 89.8836 34.4737L91.9729 33.7325V22.1736L55.0631 10.3292C54.7194 10.2171 54.4194 9.99934 54.2055 9.70676C53.9916 9.41418 53.8746 9.06153 53.871 8.69858C53.8674 8.33562 53.9774 7.98069 54.1854 7.68388C54.3934 7.38706 54.689 7.16334 55.0304 7.04429L67.1735 2.86828C67.5221 2.74879 67.8997 2.74447 68.2509 2.85596L106.888 15.1006C107.236 15.211 107.541 15.4295 107.757 15.7246C107.974 16.0198 108.092 16.3764 108.094 16.7431V58.9918C108.092 59.3583 107.975 59.7147 107.758 60.0098C107.542 60.3049 107.238 60.5236 106.89 60.6343L68.2509 72.9241C67.9104 73.033 67.5447 73.033 67.2042 72.9241L29.0494 60.6425C28.7027 60.5307 28.4001 60.3116 28.1849 60.0166C27.9698 59.7216 27.853 59.3657 27.8515 59V53.2739C27.8435 53.0415 27.8822 52.8098 27.9653 52.5927C28.0484 52.3756 28.1741 52.1775 28.335 52.0103C28.4959 51.843 28.6887 51.71 28.9019 51.6191C29.1151 51.5283 29.3443 51.4815 29.5759 51.4815C29.8074 51.4815 30.0366 51.5283 30.2498 51.6191C30.463 51.71 30.6558 51.843 30.8167 52.0103C30.9776 52.1775 31.1033 52.3756 31.1864 52.5927C31.2695 52.8098 31.3082 53.0415 31.3002 53.2739V57.7312L67.7337 69.4524L104.643 57.7312V18.0181L67.7541 6.32775L61.0774 8.62312Z" fill="#3F3F46"/>
<path d="M105.848 15.3264C106.28 15.1994 106.746 15.2476 107.144 15.4608C107.542 15.6739 107.841 16.0351 107.977 16.467C108.113 16.8989 108.075 17.3671 107.871 17.7713C107.668 18.1756 107.315 18.4838 106.888 18.6299L68.2509 30.9053C67.9117 31.0135 67.5475 31.0135 67.2083 30.9053L37.7234 21.4857C37.5013 21.4221 37.2942 21.3144 37.1143 21.169C36.9344 21.0235 36.7855 20.8433 36.6763 20.6389C36.567 20.4346 36.4997 20.2103 36.4784 19.9794C36.4571 19.7484 36.4821 19.5155 36.5521 19.2945C36.622 19.0735 36.7354 18.8688 36.8856 18.6926C37.0357 18.5164 37.2196 18.3722 37.4262 18.2687C37.6329 18.1652 37.8581 18.1044 38.0886 18.0899C38.3191 18.0754 38.5501 18.1075 38.768 18.1843L67.7316 27.4356L105.848 15.3264Z" fill="#3F3F46"/>
<path d="M84.9466 36.0071C85.372 35.8927 85.8248 35.946 86.2123 36.1561C86.5998 36.3662 86.8927 36.7171 87.0309 37.137C87.1692 37.5569 87.1423 38.014 86.9558 38.4146C86.7694 38.8153 86.4375 39.1292 86.0281 39.292L81.7739 40.7025C81.515 40.7881 81.2396 40.8109 80.9702 40.7691C80.7008 40.7272 80.4452 40.6218 80.2242 40.4615C80.0032 40.3013 79.8231 40.0907 79.6988 39.8471C79.5744 39.6035 79.5093 39.3338 79.5088 39.06V26.2815L42.599 14.4372C42.2558 14.3235 41.9569 14.1044 41.7443 13.8109C41.5317 13.5174 41.4162 13.1643 41.4142 12.8014C41.4122 12.4384 41.5237 12.084 41.733 11.7881C41.9422 11.4922 42.2387 11.2698 42.5806 11.1523L57.0706 6.33363C57.4965 6.21736 57.9506 6.26942 58.3394 6.4791C58.7282 6.68878 59.0223 7.04013 59.161 7.46089C59.2998 7.88165 59.2728 8.33982 59.0855 8.74116C58.8982 9.14251 58.5649 9.45651 58.1541 9.61858L48.6992 12.768L81.7596 23.3764C82.1067 23.4878 82.4097 23.7068 82.6253 24.0018C82.8409 24.2969 82.9579 24.6529 82.9596 25.0189V36.6661L84.9466 36.0071Z" fill="#3F3F46"/>
<path d="M31.2921 18.3114V26.6593C31.2767 27.1083 31.0882 27.5337 30.7665 27.8459C30.4448 28.158 30.015 28.3325 29.5677 28.3325C29.1204 28.3325 28.6905 28.158 28.3688 27.8459C28.0471 27.5337 27.8587 27.1083 27.8433 26.6593V17.0488C27.8434 16.68 27.9606 16.3209 28.1779 16.0237C28.3952 15.7264 28.7012 15.5066 29.0515 15.396L42.7483 11.0845C43.1817 10.9575 43.6473 11.0061 44.0454 11.22C44.4435 11.4339 44.7423 11.7959 44.8776 12.2284C45.013 12.6609 44.9741 13.1295 44.7694 13.5336C44.5647 13.9377 44.2105 14.2452 43.7827 14.39L31.2921 18.3114Z" fill="#3F3F46"/>
<path d="M45.8577 30.4888C46.3153 30.4888 46.7541 30.6713 47.0777 30.9963C47.4013 31.3213 47.583 31.762 47.583 32.2216C47.583 32.6812 47.4013 33.1219 47.0777 33.4469C46.7541 33.7718 46.3153 33.9544 45.8577 33.9544H14.8436C14.6122 33.9624 14.3815 33.9235 14.1653 33.8401C13.9492 33.7567 13.7519 33.6304 13.5854 33.4688C13.4189 33.3072 13.2864 33.1136 13.1959 32.8995C13.1055 32.6854 13.0589 32.4552 13.0589 32.2226C13.0589 31.99 13.1055 31.7598 13.1959 31.5457C13.2864 31.3316 13.4189 31.138 13.5854 30.9764C13.7519 30.8148 13.9492 30.6885 14.1653 30.6051C14.3815 30.5217 14.6122 30.4828 14.8436 30.4908L45.8577 30.4888Z" fill="#0D9488"/>
<path d="M28.6099 38.1119C29.0569 38.1273 29.4805 38.3166 29.7914 38.6396C30.1022 38.9627 30.2759 39.3944 30.2759 39.8437C30.2759 40.2929 30.1022 40.7246 29.7914 41.0477C29.4805 41.3708 29.0569 41.56 28.6099 41.5754H1.72535C1.49391 41.5835 1.26323 41.5446 1.04706 41.4612C0.830893 41.3777 0.63366 41.2515 0.467114 41.0898C0.300569 40.9282 0.16812 40.7346 0.0776606 40.5205C-0.0127989 40.3064 -0.0594177 40.0762 -0.0594177 39.8437C-0.0594177 39.6111 -0.0127989 39.3809 0.0776606 39.1668C0.16812 38.9527 0.300569 38.7591 0.467114 38.5975C0.63366 38.4359 0.830893 38.3096 1.04706 38.2262C1.26323 38.1427 1.49391 38.1039 1.72535 38.1119H28.6099Z" fill="#0D9488"/>
<path d="M9.66133 33.9544C10.6142 33.9544 11.3867 33.1786 11.3867 32.2216C11.3867 31.2646 10.6142 30.4888 9.66133 30.4888C8.70843 30.4888 7.93594 31.2646 7.93594 32.2216C7.93594 33.1786 8.70843 33.9544 9.66133 33.9544Z" fill="#0D9488"/>
<path d="M14.49 49.1985C15.4429 49.1985 16.2154 48.4227 16.2154 47.4657C16.2154 46.5087 15.4429 45.7329 14.49 45.7329C13.5371 45.7329 12.7646 46.5087 12.7646 47.4657C12.7646 48.4227 13.5371 49.1985 14.49 49.1985Z" fill="#0D9488"/>
<path d="M36.8893 45.733C37.3364 45.7484 37.76 45.9376 38.0708 46.2607C38.3816 46.5838 38.5553 47.0155 38.5553 47.4648C38.5553 47.914 38.3816 48.3457 38.0708 48.6688C37.76 48.9919 37.3364 49.1811 36.8893 49.1965H19.6641C19.4326 49.2045 19.202 49.1657 18.9858 49.0822C18.7696 48.9988 18.5724 48.8725 18.4058 48.7109C18.2393 48.5493 18.1068 48.3557 18.0164 48.1416C17.9259 47.9275 17.8793 47.6973 17.8793 47.4648C17.8793 47.2322 17.9259 47.002 18.0164 46.7879C18.1068 46.5738 18.2393 46.3802 18.4058 46.2186C18.5724 46.057 18.7696 45.9307 18.9858 45.8473C19.202 45.7638 19.4326 45.725 19.6641 45.733H36.8893Z" fill="#0D9488"/>
<path d="M54.1391 0C54.5967 0 55.0356 0.182564 55.3591 0.50753C55.6827 0.832496 55.8645 1.27324 55.8645 1.73282C55.8645 2.19239 55.6827 2.63314 55.3591 2.9581C55.0356 3.28307 54.5967 3.46563 54.1391 3.46563H27.2546C26.797 3.46563 26.3581 3.28307 26.0345 2.9581C25.711 2.63314 25.5292 2.19239 25.5292 1.73282C25.5292 1.27324 25.711 0.832496 26.0345 0.50753C26.3581 0.182564 26.797 0 27.2546 0H54.1391Z" fill="#0D9488"/>
<path d="M27.23 8.31494C27.6876 8.31494 28.1265 8.49751 28.4501 8.82247C28.7736 9.14744 28.9554 9.58819 28.9554 10.0478C28.9554 10.5073 28.7736 10.9481 28.4501 11.273C28.1265 11.598 27.6876 11.7806 27.23 11.7806H14.1465C13.9151 11.7886 13.6844 11.7497 13.4682 11.6663C13.2521 11.5829 13.0548 11.4566 12.8883 11.295C12.7217 11.1334 12.5893 10.9398 12.4988 10.7257C12.4084 10.5116 12.3618 10.2814 12.3618 10.0488C12.3618 9.81621 12.4084 9.58601 12.4988 9.37191C12.5893 9.15781 12.7217 8.96419 12.8883 8.80259C13.0548 8.64099 13.2521 8.51471 13.4682 8.43129C13.6844 8.34786 13.9151 8.30899 14.1465 8.31699L27.23 8.31494Z" fill="#0D9488"/>
<path d="M69.686 71.1109C69.6706 71.5599 69.4822 71.9853 69.1605 72.2975C68.8388 72.6096 68.4089 72.7841 67.9616 72.7841C67.5143 72.7841 67.0845 72.6096 66.7628 72.2975C66.4411 71.9853 66.2526 71.5599 66.2372 71.1109V62.5434C66.2372 62.0838 66.419 61.643 66.7426 61.3181C67.0662 60.9931 67.505 60.8105 67.9626 60.8105C68.4202 60.8105 68.8591 60.9931 69.1827 61.3181C69.5062 61.643 69.688 62.0838 69.688 62.5434L69.686 71.1109Z" fill="#3F3F46"/>
<path d="M69.6859 55.5814C69.6939 55.8138 69.6552 56.0455 69.5721 56.2626C69.4891 56.4797 69.3633 56.6778 69.2024 56.845C69.0415 57.0123 68.8487 57.1453 68.6356 57.2361C68.4224 57.327 68.1932 57.3738 67.9616 57.3738C67.73 57.3738 67.5008 57.327 67.2876 57.2361C67.0744 57.1453 66.8817 57.0123 66.7207 56.845C66.5598 56.6778 66.4341 56.4797 66.351 56.2626C66.268 56.0455 66.2293 55.8138 66.2372 55.5814V30.8354C66.2372 30.3758 66.419 29.935 66.7426 29.6101C67.0662 29.2851 67.505 29.1025 67.9626 29.1025C68.4202 29.1025 68.8591 29.2851 69.1826 29.6101C69.5062 29.935 69.688 30.3758 69.688 30.8354L69.6859 55.5814Z" fill="#3F3F46"/>
</g>
<defs>
<clipPath id="clip0_862_604">
<rect width="108.092" height="73" fill="white"/>
</clipPath>
</defs>
</svg>
