<svg width="76" height="73" viewBox="0 0 76 73" fill="none" xmlns="http://www.w3.org/2000/svg">
<path d="M18.9999 35.5L10.4999 33V64.5L11.4999 68L16.4999 72H52.0002L55.0002 70.5L58.0002 67V34.5L45.0002 31.5L35.0002 33L20.0002 35.5H18.9999Z" fill="#FDBA74"/>
<path d="M11.4999 10V3.5L13.9999 1H51.0002L56.0002 2V10H11.4999Z" fill="#0D9488"/>
<path d="M69.0001 8.57485H57.8V4.37483C57.8 2.0547 55.9201 0.174805 53.5999 0.174805H14.8003C12.4808 0.174805 10.6002 2.0547 10.6002 4.37483V8.57485H2.20018C1.70662 8.57485 1.24929 8.83531 0.997046 9.25982C0.744798 9.68433 0.735228 10.21 0.971069 10.6441L7.32716 22.3254C8.55422 24.5854 9.19817 27.1154 9.20022 29.6864V65.9752C9.20501 69.8389 12.3366 72.9705 16.2003 72.9752H52.1999C56.0643 72.9705 59.1952 69.8389 59.2 65.9752V16.9749H66.2001C66.9732 16.9749 67.6001 17.6018 67.6001 18.3749V43.5751C67.6001 45.8945 69.4807 47.7751 71.8002 47.7751C74.1203 47.7751 76.0002 45.8945 76.0002 43.5751V15.5749C75.9954 11.7105 72.8645 8.57896 69.0001 8.57485ZM13.4002 4.37483C13.4002 3.60168 14.0271 2.97482 14.8003 2.97482L53.5999 2.97482C54.3731 2.97482 55 3.60168 55 4.37483V8.57485H13.4002V4.37483ZM4.55654 11.3749H56.4V32.0147C49.5189 30.4473 50 30.5 44.2373 31.3947L32.3913 33.3614C25.6161 34.4921 18.6824 34.2549 12.0002 32.6635V29.6864C11.9982 26.6478 11.2367 23.6571 9.78538 20.9869L4.55654 11.3749ZM52.1999 70.1752H16.2003C13.8808 70.1752 12.0002 68.2946 12.0002 65.9752V35.525C15.8967 36.4103 19.8794 36.8621 23.875 36.8717C26.8828 36.8703 29.8852 36.6215 32.852 36.1266L44.696 34.1585C50 33.3614 49.6829 33.2678 56.4 34.8811V65.9752C56.4 68.2946 54.5201 70.1752 52.1999 70.1752ZM73.2002 43.5751C73.2002 44.3482 72.5733 44.9751 71.8002 44.9751C71.027 44.9751 70.4001 44.3482 70.4001 43.5751V18.3749C70.4001 16.0548 68.5202 14.1749 66.2001 14.1749H59.2V11.3749H69.0001C71.3203 11.3749 73.2002 13.2548 73.2002 15.5749V43.5751Z" fill="#3F3F46"/>
<path d="M52.1999 56.1748C51.4268 56.1748 50.7999 56.8017 50.7999 57.5748V63.1748C50.7999 63.948 50.173 64.5749 49.3999 64.5749H43.7998C43.0267 64.5749 42.3998 65.2017 42.3998 65.9749C42.3998 66.748 43.0267 67.3749 43.7998 67.3749H49.3999C51.72 67.3749 53.5999 65.4943 53.5999 63.1748V57.5748C53.5999 56.8017 52.973 56.1748 52.1999 56.1748Z" fill="#3F3F46"/>
</svg>
