<svg width="66" height="73" viewBox="0 0 66 73" fill="none" xmlns="http://www.w3.org/2000/svg">
<g clip-path="url(#clip0_862_573)">
<path fill-rule="evenodd" clip-rule="evenodd" d="M55.2975 53.8429C57.7465 53.8429 60.0952 52.8716 61.8269 51.1427C63.5585 49.4139 64.5314 47.069 64.5314 44.6241C64.5314 42.1791 63.5585 39.8343 61.8269 38.1054C60.0952 36.3765 57.7465 35.4053 55.2975 35.4053V53.8429Z" fill="#FDBA74"/>
<path fill-rule="evenodd" clip-rule="evenodd" d="M56.7643 52.2348V37.0095C58.5368 37.3503 60.1351 38.2968 61.2845 39.6863C62.4339 41.0759 63.0626 42.8218 63.0626 44.624C63.0626 46.4261 62.4339 48.172 61.2845 49.5616C60.1351 50.9512 58.5368 51.8977 56.7643 52.2385V52.2348ZM57.5032 8.47917C54.8257 5.79116 51.6424 3.65805 48.1364 2.20247C44.6304 0.74689 40.8708 -0.00244141 37.0737 -0.00244141C33.2766 -0.00244141 29.517 0.74689 26.0109 2.20247C22.5049 3.65805 19.3217 5.79116 16.6442 8.47917C14.5925 10.523 12.8568 12.8603 11.4941 15.4142C10.6315 17.7652 13.414 18.3393 14.0891 16.7768C16.797 11.649 21.1468 7.57426 26.4449 5.20256C31.7429 2.83086 37.6839 2.29884 43.3201 3.69139C48.9564 5.08393 53.9631 8.3208 57.5418 12.8857C61.1204 17.4505 63.0647 23.0804 63.0646 28.8772V37.282C62.0669 36.2255 60.8634 35.3839 59.5281 34.8087C58.1927 34.2335 56.7537 33.9369 55.2993 33.9371C54.9098 33.9371 54.5363 34.0916 54.2609 34.3666C53.9855 34.6416 53.8307 35.0145 53.8307 35.4034V53.8428C53.8307 54.0353 53.8687 54.226 53.9425 54.4039C54.0163 54.5817 54.1245 54.7434 54.2609 54.8795C54.3972 55.0157 54.5591 55.1237 54.7373 55.1974C54.9155 55.2711 55.1065 55.309 55.2993 55.309C58.1082 55.3051 60.8031 54.2 62.8038 52.2318C64.8045 50.2635 65.951 47.5896 65.9963 44.7857C65.9963 44.7675 65.9963 39.4647 65.9963 28.8772C66.0019 25.0858 65.2542 21.331 63.7967 17.83C62.3392 14.3291 60.2007 11.1514 57.505 8.48099L57.5032 8.47917Z" fill="#3F3F46"/>
<path fill-rule="evenodd" clip-rule="evenodd" d="M63.3157 53.6885C62.9882 53.6884 62.6707 53.8017 62.4174 54.009C62.1641 54.2164 61.9907 54.5051 61.9267 54.8258C61.8627 55.1465 61.9121 55.4795 62.0664 55.768C62.2207 56.0564 62.4705 56.2825 62.7731 56.4078C63.0757 56.533 63.4124 56.5496 63.7259 56.4548C64.0394 56.3599 64.3102 56.1595 64.4923 55.8876C64.6743 55.6158 64.7563 55.2893 64.7243 54.9638C64.6923 54.6383 64.5482 54.334 64.3166 54.1027C64.0503 53.8389 63.6909 53.6902 63.3157 53.6885Z" fill="#3F3F46"/>
<path fill-rule="evenodd" clip-rule="evenodd" d="M42.1183 67.7146L44.202 67.2731L44.6442 69.3534L42.5605 69.7949L42.1183 67.7146ZM62.5205 58.3014C62.1826 58.109 61.782 58.0584 61.4067 58.1606C61.0314 58.2627 60.712 58.5094 60.5187 58.8464C59.1194 61.2737 57.2478 63.3968 55.0141 65.0908C52.7804 66.7848 50.2297 68.0155 47.5123 68.7102L46.7735 65.2382C46.7334 65.0498 46.6566 64.8711 46.5475 64.7124C46.4383 64.5537 46.2988 64.4179 46.1371 64.313C45.9754 64.208 45.7945 64.1359 45.6049 64.1008C45.4153 64.0656 45.2205 64.0681 45.0319 64.1081L40.0764 65.1601C39.6957 65.2411 39.3628 65.4699 39.1509 65.7959C38.939 66.1219 38.8654 66.5186 38.9463 66.8988L40 71.8461C40.04 72.0345 40.1168 72.2132 40.226 72.3719C40.3352 72.5307 40.4746 72.6664 40.6363 72.7713C40.7981 72.8763 40.9789 72.9484 41.1686 72.9835C41.3582 73.0187 41.5529 73.0162 41.7416 72.9762L46.697 71.9243C50.1009 71.2776 53.3249 69.9056 56.1493 67.9017C58.9736 65.8978 61.3317 63.3093 63.0628 60.3127C63.1604 60.1453 63.2237 59.9602 63.2493 59.7683C63.2748 59.5763 63.262 59.3812 63.2115 59.1942C63.1611 59.0072 63.0741 58.832 62.9555 58.6787C62.8369 58.5255 62.689 58.3973 62.5205 58.3014Z" fill="#3F3F46"/>
<path fill-rule="evenodd" clip-rule="evenodd" d="M4.98453 55.7978C3.66255 55.7978 2.39472 55.2735 1.45994 54.3402C0.525155 53.407 0 52.1412 0 50.8214V24.7293C0 24.0758 0.128929 23.4287 0.379425 22.8249C0.629921 22.2212 0.997079 21.6726 1.45994 21.2105C1.92279 20.7484 2.47228 20.3818 3.07703 20.1317C3.68179 19.8816 4.32995 19.7529 4.98453 19.7529H40.8881C41.5427 19.7529 42.1908 19.8816 42.7956 20.1317C43.4003 20.3818 43.9498 20.7484 44.4127 21.2105C44.8755 21.6726 45.2427 22.2212 45.4932 22.8249C45.7437 23.4287 45.8726 24.0758 45.8726 24.7293V57.5275C45.8749 58.1836 45.673 58.8243 45.2948 59.3609C44.9166 59.8975 44.3808 60.3036 43.7614 60.5231C43.142 60.7425 42.4696 60.7644 41.8372 60.5858C41.2048 60.4072 40.6436 60.0369 40.2311 59.526L37.2029 55.8014L4.98453 55.7978ZM4.98453 22.4655C4.68654 22.465 4.39138 22.5233 4.11595 22.6368C3.84052 22.7504 3.59024 22.9171 3.37945 23.1274C3.16865 23.3377 3.00147 23.5874 2.88749 23.8623C2.7735 24.1372 2.71496 24.4318 2.7152 24.7293V50.8232C2.7152 51.4231 2.9539 51.9985 3.3788 52.4227C3.8037 52.8469 4.37999 53.0852 4.98089 53.0852H38.5041L42.3476 57.8091C42.4067 57.8814 42.4867 57.9338 42.5767 57.9589C42.6668 57.9841 42.7624 57.9808 42.8505 57.9495C42.9386 57.9183 43.0149 57.8606 43.0688 57.7844C43.1228 57.7082 43.1518 57.6172 43.152 57.5238V24.7293C43.152 24.1294 42.9133 23.5541 42.4884 23.1299C42.0635 22.7057 41.4872 22.4673 40.8863 22.4673L4.98453 22.4655Z" fill="#0D9488"/>
<path fill-rule="evenodd" clip-rule="evenodd" d="M31.2867 36.3644H40.4259V38.7373L35.6342 50.5651H32.6806L37.3321 39.0425H31.2867V36.3644ZM27.6852 36.1119V38.7082H26.1693V41.1228H23.3558V38.7082H16.6643V36.1101L21.5378 26.6369H24.5296L19.6761 36.1101H23.3558V32.7434H26.1656V36.1119H27.6852ZM5.69066 41.121V39.0316L10.5223 34.0407C11.3909 33.3231 11.9664 32.313 12.1402 31.2009C12.1552 30.9554 12.118 30.7094 12.031 30.4793C11.9439 30.2491 11.8091 30.04 11.6353 29.8656C11.4615 29.6912 11.2527 29.5556 11.0226 29.4675C10.7925 29.3795 10.5463 29.3412 10.3003 29.355C9.78397 29.3623 9.28187 29.5251 8.85975 29.822C8.43763 30.119 8.11514 30.5362 7.93451 31.0192L5.58875 29.6402C5.98057 28.7331 6.63421 27.9632 7.46625 27.4286C8.2983 26.894 9.27101 26.619 10.2603 26.6387C10.8652 26.6062 11.4703 26.6978 12.0384 26.9079C12.6064 27.118 13.1253 27.4422 13.5629 27.8604C14.0006 28.2785 14.3477 28.7819 14.5828 29.3392C14.8179 29.8966 14.9361 30.4962 14.93 31.101C14.8624 31.974 14.6221 32.825 14.2229 33.6047C13.8236 34.3843 13.2735 35.0772 12.6042 35.6431L9.83442 38.4266H15.152V41.1246L5.69066 41.121Z" fill="#3F3F46"/>
<path fill-rule="evenodd" clip-rule="evenodd" d="M34.3803 27.1387L21.7579 50.5654H22.9809L35.5978 27.1405L34.3803 27.1387Z" fill="#EDB56A"/>
</g>
<defs>
<clipPath id="clip0_862_573">
<rect width="66" height="73" fill="white"/>
</clipPath>
</defs>
</svg>
