<svg width="40" height="40" viewBox="0 0 40 40" fill="none" xmlns="http://www.w3.org/2000/svg">
<path d="M26.8995 3.5606C26.8195 4.0606 26.7795 4.5606 26.7795 5.0606C26.7795 9.5606 30.4195 13.1986 34.8995 13.1986C35.3995 13.1986 35.8795 13.1406 36.3795 13.0606V29.1986C36.3795 35.9806 32.3795 40.0006 25.5795 40.0006H10.8015C3.99951 40.0006 -0.000488281 35.9806 -0.000488281 29.1986V14.4006C-0.000488281 7.6006 3.99951 3.5606 10.8015 3.5606H26.8995ZM27.3015 15.7206C26.7595 15.6606 26.2215 15.9006 25.8995 16.3406L21.0615 22.6006L15.5195 18.2406C15.1795 17.9806 14.7795 17.8786 14.3795 17.9206C13.9815 17.9806 13.6215 18.1986 13.3795 18.5186L7.46151 26.2206L7.33951 26.4006C6.99951 27.0386 7.15951 27.8586 7.75951 28.3006C8.03951 28.4806 8.33951 28.6006 8.67951 28.6006C9.14151 28.6206 9.57951 28.3786 9.85951 28.0006L14.8795 21.5386L20.5795 25.8206L20.7595 25.9386C21.3995 26.2786 22.1995 26.1206 22.6595 25.5186L28.4395 18.0606L28.3595 18.1006C28.6795 17.6606 28.7395 17.1006 28.5195 16.6006C28.3015 16.1006 27.8195 15.7606 27.3015 15.7206ZM35.1797 0C37.8397 0 39.9997 2.16 39.9997 4.82C39.9997 7.48 37.8397 9.64 35.1797 9.64C32.5197 9.64 30.3597 7.48 30.3597 4.82C30.3597 2.16 32.5197 0 35.1797 0Z" fill="#059669"/>
</svg>
