<svg width="40" height="40" viewBox="0 0 40 40" fill="none" xmlns="http://www.w3.org/2000/svg">
<path d="M19.9998 0.000183105C31.0398 0.000183105 39.9998 8.96018 39.9998 20.0002C39.9998 31.0602 31.0398 40.0002 19.9998 40.0002C8.93976 40.0002 -0.000244141 31.0602 -0.000244141 20.0002C-0.000244141 8.96018 8.93976 0.000183105 19.9998 0.000183105ZM27.6998 13.4202C27.9198 12.7202 27.2798 12.0602 26.5798 12.2802L16.3398 15.4802C15.9198 15.6202 15.5798 15.9402 15.4598 16.3602L12.2598 26.6202C12.0398 27.3002 12.6998 27.9602 13.3798 27.7402L23.5798 24.5402C23.9998 24.4202 24.3398 24.0802 24.4598 23.6602L27.6998 13.4202Z" fill="#059669"/>
</svg>
